<svg t="1695088455071" class="icon" viewBox="0 0 1024 1024" version="1.1" xmlns="http://www.w3.org/2000/svg" p-id="29890" width="200" height="200">
  <path d="M592 394h160c44.184 0 80 35.818 80 80v278c0 44.184-35.816 80-80 80h-160c-44.184 0-80-35.816-80-80V474c0-44.182 35.816-80 80-80z" fill="#DFECFD" p-id="29891"></path>
  <path d="M272 192h308c44.184 0 80 35.818 80 80v480c0 44.184-35.816 80-80 80H272c-44.182 0-80-35.816-80-80V272c0-44.182 35.818-80 80-80z" fill="#4988FD" p-id="29892"></path>
  <path d="M580 832H272c-44.112 0-80-35.888-80-80V272c0-44.112 35.888-80 80-80h308c44.112 0 80 35.888 80 80v480c0 44.112-35.888 80-80 80zM272 252c-11.028 0-20 8.972-20 20v480c0 11.028 8.972 20 20 20h308c11.028 0 20-8.972 20-20V272c0-11.028-8.972-20-20-20H272z" fill="#4988FD" p-id="29893"></path>
  <path d="M349 289h-100c-11.046 0-20-8.954-20-20s8.954-20 20-20h100c11.046 0 20 8.954 20 20s-8.954 20-20 20zM602 774h-100c-11.046 0-20-8.956-20-20s8.954-20 20-20h100c11.044 0 20 8.956 20 20s-8.956 20-20 20z" fill="#DFECFD" p-id="29894"></path>
  <path d="M392.868 721.456l33.134-209.192 136.724 21.654-169.858 187.538z" fill="#DFECFD" p-id="29895"></path>
  <path d="M392.86 751.458a30.002 30.002 0 0 1-29.62-34.694l33.13-209.194a30.006 30.006 0 0 1 34.324-24.938l136.726 21.656a29.996 29.996 0 0 1 17.54 49.768l-169.86 187.538a29.984 29.984 0 0 1-22.24 9.864z m58.08-204.872l-12.682 80.066 65.012-71.776-52.332-8.29z" fill="#DFECFD" p-id="29896"></path>
  <path d="M459.134 303.07l-33.132 209.194-136.726-21.656 169.858-187.538z" fill="#DFECFD" p-id="29897"></path>
  <path d="M426 542.264c-1.56 0-3.13-0.122-4.692-0.37l-136.726-21.656a30 30 0 0 1-17.54-49.77l169.856-187.538a30.004 30.004 0 0 1 51.866 24.834l-33.132 209.192A30 30 0 0 1 426 542.264z m-77.268-72.614l52.332 8.29 12.68-80.066-65.012 71.776z" fill="#DFECFD" p-id="29898"></path>
</svg>