<?xml version="1.0" standalone="no"?><!DOCTYPE svg PUBLIC "-//W3C//DTD SVG 1.1//EN" "http://www.w3.org/Graphics/SVG/1.1/DTD/svg11.dtd"><svg t="1693710004769" class="icon" viewBox="0 0 1024 1024" version="1.1" xmlns="http://www.w3.org/2000/svg" p-id="2091" xmlns:xlink="http://www.w3.org/1999/xlink" width="200" height="200"><path d="M171.033298 85.391661c0-47.095401 38.19627-85.391661 85.29167-85.391661h511.950005c47.095401 0 85.291671 38.19627 85.291671 85.391661v853.216678c0 47.095401-38.19627 85.391661-85.291671 85.391661h-511.950005c-47.095401 0-85.291671-38.19627-85.29167-85.391661V85.391661z" fill="#666666" p-id="2092"></path><path d="M213.729128 85.391661c0-23.597696 19.098135-42.69583 42.695831-42.695831h511.950004c23.597696 0 42.69583 19.098135 42.695831 42.695831v853.216678c0 23.597696-19.098135 42.69583-42.695831 42.695831h-511.950004c-23.597696 0-42.69583-19.098135-42.695831-42.695831V85.391661z" fill="#FEFCEA" p-id="2093"></path><path d="M213.729128 127.987501H810.970804v725.229177H213.729128z" fill="#C1E19D" p-id="2094"></path><path d="M427.0083 917.210429c0-11.798848 9.499072-21.29792 21.39791-21.29792h127.987502c11.798848 0 21.39791 9.599063 21.39791 21.29792 0 11.798848-9.499072 21.29792-21.39791 21.29792h-127.987502c-11.798848 0.09999-21.39791-9.499072-21.39791-21.29792z" fill="#666666" p-id="2095"></path></svg>