<?xml version="1.0" standalone="no"?><!DOCTYPE svg PUBLIC "-//W3C//DTD SVG 1.1//EN" "http://www.w3.org/Graphics/SVG/1.1/DTD/svg11.dtd"><svg t="1693710017057" class="icon" viewBox="0 0 1024 1024" version="1.1" xmlns="http://www.w3.org/2000/svg" p-id="2233" xmlns:xlink="http://www.w3.org/1999/xlink" width="200" height="200"><path d="M981.3 682.3v-512c0-47.1-38.2-85.3-85.3-85.3H128c-47.1 0-85.3 38.2-85.3 85.3v512H0V853c0 47.2 38.2 85.3 85.4 85.3h853.3c47.1 0 85.4-38.2 85.4-85.3V682.3h-42.8z" fill="#666666" p-id="2234"></path><path d="M938.7 597v85.3H85.3V597z" fill="#FFFFFF" p-id="2235"></path><path d="M128 127.7h768c23.6 0 42.7 19.1 42.7 42.7V597H85.3V170.4c0-23.6 19.2-42.7 42.7-42.7z" fill="#FFEBD8" p-id="2236"></path><path d="M42.7 725h938.7v128c0 23.6-19.1 42.7-42.7 42.7H85.4c-23.6 0-42.7-19.1-42.7-42.7V725z" fill="#EDF4FF" p-id="2237"></path></svg>