<?xml version="1.0" standalone="no"?><!DOCTYPE svg PUBLIC "-//W3C//DTD SVG 1.1//EN" "http://www.w3.org/Graphics/SVG/1.1/DTD/svg11.dtd"><svg t="1693709979674" class="icon" viewBox="0 0 1024 1024" version="1.1" xmlns="http://www.w3.org/2000/svg" p-id="1949" xmlns:xlink="http://www.w3.org/1999/xlink" width="200" height="200"><path d="M981.3 682.3h42.7V853c0 47.1-38.2 85.3-85.4 85.3H85.4c-47.1 0-85.4-38.2-85.4-85.3V682.3h42.7v-512C42.7 123.2 80.9 85 128 85h768c47.1 0 85.3 38.2 85.3 85.3v512z" fill="#666666" p-id="1950"></path><path d="M85.3 170.3c0-23.6 19.1-42.7 42.7-42.7h768c23.6 0 42.7 19.1 42.7 42.7v512H85.3v-512z" fill="#FEFCEA" p-id="1951"></path><path d="M810.7 255.7V597H213.3V255.7z" fill="#C1E19D" p-id="1952"></path><path d="M981.3 725v128c0 23.6-19.1 42.7-42.7 42.7H85.4c-23.6 0-42.7-19.1-42.7-42.7V725h938.6z" fill="#F9F1FF" p-id="1953"></path></svg>